<mxfile host="app.diagrams.net" agent="Mozilla/5.0 (Windows NT 10.0; Win64; x64) AppleWebKit/537.36 (KHTML, like Gecko) Chrome/123.0.0.0 Safari/537.36" version="24.7.6">
  <diagram id="C5RBs43oDa-KdzZeNtuy" name="Page-1">
    <mxGraphModel dx="682" dy="374" grid="1" gridSize="10" guides="1" tooltips="1" connect="1" arrows="1" fold="1" page="1" pageScale="1" pageWidth="827" pageHeight="1169" math="0" shadow="0">
      <root>
        <mxCell id="WIyWlLk6GJQsqaUBKTNV-0" />
        <mxCell id="WIyWlLk6GJQsqaUBKTNV-1" parent="WIyWlLk6GJQsqaUBKTNV-0" />
        <mxCell id="WIyWlLk6GJQsqaUBKTNV-2" value="" style="rounded=0;html=1;jettySize=auto;orthogonalLoop=1;fontSize=11;endArrow=block;endFill=0;endSize=8;strokeWidth=1;shadow=0;labelBackgroundColor=none;edgeStyle=orthogonalEdgeStyle;" parent="WIyWlLk6GJQsqaUBKTNV-1" source="WIyWlLk6GJQsqaUBKTNV-3" edge="1">
          <mxGeometry relative="1" as="geometry">
            <mxPoint x="220" y="160" as="targetPoint" />
          </mxGeometry>
        </mxCell>
        <mxCell id="WIyWlLk6GJQsqaUBKTNV-3" value="正常设 X" style="rounded=1;whiteSpace=wrap;html=1;fontSize=12;glass=0;strokeWidth=1;shadow=0;" parent="WIyWlLk6GJQsqaUBKTNV-1" vertex="1">
          <mxGeometry x="170" y="80" width="100" height="40" as="geometry" />
        </mxCell>
        <mxCell id="WIyWlLk6GJQsqaUBKTNV-7" value="找 X 的另一端点" style="rounded=1;whiteSpace=wrap;html=1;fontSize=12;glass=0;strokeWidth=1;shadow=0;" parent="WIyWlLk6GJQsqaUBKTNV-1" vertex="1">
          <mxGeometry x="170" y="160" width="100" height="40" as="geometry" />
        </mxCell>
        <mxCell id="WIyWlLk6GJQsqaUBKTNV-12" value="找出可以令等式两端成立的内容&lt;div&gt;这个过程可能需要尝试多次&lt;/div&gt;" style="rounded=1;whiteSpace=wrap;html=1;fontSize=12;glass=0;strokeWidth=1;shadow=0;" parent="WIyWlLk6GJQsqaUBKTNV-1" vertex="1">
          <mxGeometry x="140" y="240" width="180" height="40" as="geometry" />
        </mxCell>
        <mxCell id="fFDKupmTJ9Lw3_ZmGzhM-0" value="" style="rounded=0;html=1;jettySize=auto;orthogonalLoop=1;fontSize=11;endArrow=block;endFill=0;endSize=8;strokeWidth=1;shadow=0;labelBackgroundColor=none;edgeStyle=orthogonalEdgeStyle;" parent="WIyWlLk6GJQsqaUBKTNV-1" edge="1">
          <mxGeometry relative="1" as="geometry">
            <mxPoint x="219.74" y="200" as="sourcePoint" />
            <mxPoint x="219.74" y="240" as="targetPoint" />
          </mxGeometry>
        </mxCell>
        <mxCell id="r51yjitiQ1QQHzr15yWM-8" style="edgeStyle=orthogonalEdgeStyle;rounded=0;orthogonalLoop=1;jettySize=auto;html=1;" parent="WIyWlLk6GJQsqaUBKTNV-1" source="r51yjitiQ1QQHzr15yWM-0" edge="1">
          <mxGeometry relative="1" as="geometry">
            <mxPoint x="470" y="70" as="targetPoint" />
          </mxGeometry>
        </mxCell>
        <mxCell id="r51yjitiQ1QQHzr15yWM-0" value="&lt;font style=&quot;font-size: 11px;&quot;&gt;判断问题的类型&lt;/font&gt;&lt;div style=&quot;font-size: 11px;&quot;&gt;&lt;font style=&quot;font-size: 11px;&quot;&gt;是不是一个人干活，另一个捣乱&lt;/font&gt;&lt;/div&gt;" style="rounded=1;whiteSpace=wrap;html=1;fontSize=12;glass=0;strokeWidth=1;shadow=0;" parent="WIyWlLk6GJQsqaUBKTNV-1" vertex="1">
          <mxGeometry x="270" width="160" height="40" as="geometry" />
        </mxCell>
        <mxCell id="r51yjitiQ1QQHzr15yWM-2" value="" style="rounded=0;html=1;jettySize=auto;orthogonalLoop=1;fontSize=11;endArrow=block;endFill=0;endSize=8;strokeWidth=1;shadow=0;labelBackgroundColor=none;edgeStyle=orthogonalEdgeStyle;entryX=0.5;entryY=0;entryDx=0;entryDy=0;exitX=0;exitY=0.5;exitDx=0;exitDy=0;" parent="WIyWlLk6GJQsqaUBKTNV-1" source="r51yjitiQ1QQHzr15yWM-0" target="WIyWlLk6GJQsqaUBKTNV-3" edge="1">
          <mxGeometry relative="1" as="geometry">
            <mxPoint x="280" y="70" as="targetPoint" />
            <mxPoint x="280" y="30" as="sourcePoint" />
          </mxGeometry>
        </mxCell>
        <mxCell id="r51yjitiQ1QQHzr15yWM-3" value="考虑用速度差&lt;div&gt;再设 X&lt;/div&gt;" style="rounded=1;whiteSpace=wrap;html=1;fontSize=12;glass=0;strokeWidth=1;shadow=0;" parent="WIyWlLk6GJQsqaUBKTNV-1" vertex="1">
          <mxGeometry x="414" y="80" width="100" height="40" as="geometry" />
        </mxCell>
        <mxCell id="r51yjitiQ1QQHzr15yWM-16" style="edgeStyle=orthogonalEdgeStyle;rounded=0;orthogonalLoop=1;jettySize=auto;html=1;exitX=0.5;exitY=1;exitDx=0;exitDy=0;entryX=0.5;entryY=0;entryDx=0;entryDy=0;" parent="WIyWlLk6GJQsqaUBKTNV-1" source="r51yjitiQ1QQHzr15yWM-10" target="r51yjitiQ1QQHzr15yWM-11" edge="1">
          <mxGeometry relative="1" as="geometry" />
        </mxCell>
        <mxCell id="r51yjitiQ1QQHzr15yWM-10" value="&lt;div&gt;&amp;nbsp;配常数项&lt;/div&gt;&lt;div&gt;配为一次项系数的一半再平方&lt;/div&gt;" style="rounded=1;whiteSpace=wrap;html=1;fontSize=12;glass=0;strokeWidth=1;shadow=0;" parent="WIyWlLk6GJQsqaUBKTNV-1" vertex="1">
          <mxGeometry x="185" y="510" width="175" height="40" as="geometry" />
        </mxCell>
        <mxCell id="r51yjitiQ1QQHzr15yWM-18" style="edgeStyle=orthogonalEdgeStyle;rounded=0;orthogonalLoop=1;jettySize=auto;html=1;entryX=0.5;entryY=0;entryDx=0;entryDy=0;" parent="WIyWlLk6GJQsqaUBKTNV-1" source="r51yjitiQ1QQHzr15yWM-11" target="r51yjitiQ1QQHzr15yWM-17" edge="1">
          <mxGeometry relative="1" as="geometry" />
        </mxCell>
        <mxCell id="r51yjitiQ1QQHzr15yWM-11" value="配了常数项，&lt;div&gt;肯定无中生有了某种操作，必须在等式另一边进行抵消&lt;/div&gt;" style="rounded=1;whiteSpace=wrap;html=1;fontSize=12;glass=0;strokeWidth=1;shadow=0;" parent="WIyWlLk6GJQsqaUBKTNV-1" vertex="1">
          <mxGeometry x="190" y="584" width="150" height="56" as="geometry" />
        </mxCell>
        <mxCell id="r51yjitiQ1QQHzr15yWM-15" value="二次项系数化为 1" style="rounded=1;whiteSpace=wrap;html=1;fontSize=12;glass=0;strokeWidth=1;shadow=0;" parent="WIyWlLk6GJQsqaUBKTNV-1" vertex="1">
          <mxGeometry x="215" y="440" width="100" height="40" as="geometry" />
        </mxCell>
        <mxCell id="r51yjitiQ1QQHzr15yWM-17" value="逆用完全平方公式，找 b&lt;div&gt;将配完的式子化简&lt;/div&gt;" style="rounded=1;whiteSpace=wrap;html=1;fontSize=12;glass=0;strokeWidth=1;shadow=0;" parent="WIyWlLk6GJQsqaUBKTNV-1" vertex="1">
          <mxGeometry x="196.25" y="670" width="137.5" height="40" as="geometry" />
        </mxCell>
        <mxCell id="r51yjitiQ1QQHzr15yWM-21" style="edgeStyle=orthogonalEdgeStyle;rounded=0;orthogonalLoop=1;jettySize=auto;html=1;entryX=0.5;entryY=0;entryDx=0;entryDy=0;" parent="WIyWlLk6GJQsqaUBKTNV-1" target="r51yjitiQ1QQHzr15yWM-22" edge="1">
          <mxGeometry relative="1" as="geometry">
            <mxPoint x="267.5" y="710" as="sourcePoint" />
          </mxGeometry>
        </mxCell>
        <mxCell id="r51yjitiQ1QQHzr15yWM-22" value="两边同时开方&lt;div&gt;记得右边要加正负号&lt;/div&gt;" style="rounded=1;whiteSpace=wrap;html=1;fontSize=12;glass=0;strokeWidth=1;shadow=0;" parent="WIyWlLk6GJQsqaUBKTNV-1" vertex="1">
          <mxGeometry x="207.5" y="740" width="115" height="40" as="geometry" />
        </mxCell>
        <mxCell id="r51yjitiQ1QQHzr15yWM-23" style="edgeStyle=orthogonalEdgeStyle;rounded=0;orthogonalLoop=1;jettySize=auto;html=1;exitX=0.5;exitY=1;exitDx=0;exitDy=0;entryX=0.526;entryY=0.067;entryDx=0;entryDy=0;entryPerimeter=0;" parent="WIyWlLk6GJQsqaUBKTNV-1" edge="1">
          <mxGeometry relative="1" as="geometry">
            <mxPoint x="250" y="480" as="sourcePoint" />
            <mxPoint x="262.04999999999995" y="512.6800000000001" as="targetPoint" />
            <Array as="points">
              <mxPoint x="262" y="480" />
            </Array>
          </mxGeometry>
        </mxCell>
        <mxCell id="-TLis_5vYddRsclxDr7s-0" value="带 x 的东西全放到左边&lt;div&gt;合并同类项&lt;/div&gt;" style="rounded=1;whiteSpace=wrap;html=1;fontSize=12;glass=0;strokeWidth=1;shadow=0;" vertex="1" parent="WIyWlLk6GJQsqaUBKTNV-1">
          <mxGeometry x="198.75" y="367" width="132.5" height="40" as="geometry" />
        </mxCell>
        <mxCell id="-TLis_5vYddRsclxDr7s-1" style="edgeStyle=orthogonalEdgeStyle;rounded=0;orthogonalLoop=1;jettySize=auto;html=1;exitX=0.5;exitY=1;exitDx=0;exitDy=0;entryX=0.526;entryY=0.067;entryDx=0;entryDy=0;entryPerimeter=0;" edge="1" parent="WIyWlLk6GJQsqaUBKTNV-1" source="-TLis_5vYddRsclxDr7s-0">
          <mxGeometry relative="1" as="geometry">
            <mxPoint x="266.5" y="440" as="targetPoint" />
          </mxGeometry>
        </mxCell>
      </root>
    </mxGraphModel>
  </diagram>
</mxfile>
